<svg width="20" height="20" viewBox="0 0 20 20" fill="none" xmlns="http://www.w3.org/2000/svg">
<path fill-rule="evenodd" clip-rule="evenodd" d="M10.0007 0.833008C4.93815 0.833008 0.833984 4.93717 0.833984 9.99967C0.833984 15.0622 4.93815 19.1663 10.0007 19.1663C15.0631 19.1663 19.1673 15.0622 19.1673 9.99967C19.1673 4.93717 15.0631 0.833008 10.0007 0.833008ZM13.974 8.44967C14.0471 8.36604 14.1028 8.26862 14.1378 8.16315C14.1728 8.05767 14.1863 7.94627 14.1775 7.83549C14.1688 7.72472 14.138 7.61681 14.087 7.51811C14.0359 7.41942 13.9656 7.33193 13.8803 7.26079C13.7949 7.18966 13.6962 7.13631 13.5899 7.10389C13.4836 7.07148 13.3719 7.06064 13.2614 7.07203C13.1509 7.08342 13.0437 7.1168 12.9463 7.1702C12.8488 7.22361 12.7631 7.29596 12.694 7.38301L9.11065 11.6822L7.25648 9.82717C7.09932 9.67537 6.88881 9.59138 6.67032 9.59328C6.45182 9.59518 6.24281 9.68282 6.0883 9.83733C5.93379 9.99183 5.84615 10.2008 5.84426 10.4193C5.84236 10.6378 5.92635 10.8483 6.07815 11.0055L8.57815 13.5055C8.66003 13.5873 8.75806 13.6512 8.866 13.6931C8.97393 13.7349 9.0894 13.7538 9.20504 13.7485C9.32068 13.7433 9.43396 13.714 9.53766 13.6625C9.64136 13.6111 9.73319 13.5386 9.80732 13.4497L13.974 8.44967Z" fill="url(#paint0_linear_1_116)"/>
<defs>
<linearGradient id="paint0_linear_1_116" x1="-2.45943" y1="0.833008" x2="19.6064" y2="0.833008" gradientUnits="userSpaceOnUse">
<stop stop-color="#37A983"/>
<stop offset="1" stop-color="#00C182"/>
</linearGradient>
</defs>
</svg>
