<svg width="117" height="117" viewBox="0 0 117 117" fill="none" xmlns="http://www.w3.org/2000/svg">
<g clip-path="url(#clip0_1_183)">
<path opacity="0.06" d="M58.5016 117.003C90.8111 117.003 117.003 90.8111 117.003 58.5016C117.003 26.192 90.8111 0 58.5016 0C26.192 0 0 26.192 0 58.5016C0 90.8111 26.192 117.003 58.5016 117.003Z" fill="#FFB316"/>
<path d="M58.5018 102.682C82.7279 102.682 102.367 83.0433 102.367 58.8173C102.367 34.5912 82.7279 14.9521 58.5018 14.9521C34.2758 14.9521 14.6367 34.5912 14.6367 58.8173C14.6367 83.0433 34.2758 102.682 58.5018 102.682Z" stroke="url(#paint0_linear_1_183)" stroke-width="6" stroke-miterlimit="10"/>
<path d="M72 51.8409C72 56.0682 70.5405 59.6136 67.5553 62.2045C67.4226 62.2045 66.6265 63.0909 66.6265 63.0909L66.4939 63.2273C65.2998 64.9318 64.4373 69.7727 64.2383 73.5909C64.1057 73.4545 63.973 73.4545 63.774 73.4545C61.1204 73.4545 58.5995 73.4545 55.9459 73.4545C54.2875 73.4545 54.2875 76.0455 55.9459 76.0455C58.5995 76.0455 61.1204 76.0455 63.774 76.0455C63.9066 76.0455 63.9066 76.0455 64.1057 76.0455C63.6413 78.2955 61.7175 80 59.5283 80H56.8747C54.3538 80 52.2973 77.8864 52.2973 75.2955V75.0227C52.2973 73.3182 52.1646 71.5455 51.8329 69.7045C54.4865 69.7045 57.0074 69.7045 60.1253 69.7045C61.7838 69.7045 61.7838 67.1136 60.1253 67.1136C57.4717 67.1136 54.9509 67.1136 52.231 67.1136C52.0983 67.1136 51.8993 67.25 51.7666 67.25C51.5012 65.5455 50.8378 64.0455 50.4398 63.2955L49.7101 62.4091L49.5774 62.2727C46.5921 59.6818 45 56.1364 45 51.9091C45 44.2727 51.1032 38 58.5332 38C65.8968 38 72 44.2045 72 51.8409Z" fill="white"/>
<line x1="58.5" y1="2.18557e-08" x2="58.5" y2="118" stroke="white" stroke-opacity="0.3" stroke-dasharray="2 2"/>
<line x1="117" y1="59.5" x2="-1" y2="59.5" stroke="white" stroke-opacity="0.3" stroke-dasharray="2 2"/>
</g>
<defs>
<linearGradient id="paint0_linear_1_183" x1="58.5018" y1="14.9521" x2="58.5018" y2="102.682" gradientUnits="userSpaceOnUse">
<stop stop-color="#FFB01B"/>
<stop offset="1" stop-color="#FEB317"/>
</linearGradient>
<clipPath id="clip0_1_183">
<rect width="117" height="117" fill="white"/>
</clipPath>
</defs>
</svg>
