<svg width="117" height="117" viewBox="0 0 117 117" fill="none" xmlns="http://www.w3.org/2000/svg">
<g clip-path="url(#clip0_1_191)">
<path opacity="0.06" d="M58.5016 117.003C90.8111 117.003 117.003 90.8111 117.003 58.5016C117.003 26.192 90.8111 0 58.5016 0C26.192 0 0 26.192 0 58.5016C0 90.8111 26.192 117.003 58.5016 117.003Z" fill="#FFB316"/>
<path d="M58.5018 102.682C82.7279 102.682 102.367 83.0433 102.367 58.8173C102.367 34.5912 82.7279 14.9521 58.5018 14.9521C34.2758 14.9521 14.6367 34.5912 14.6367 58.8173C14.6367 83.0433 34.2758 102.682 58.5018 102.682Z" stroke="url(#paint0_linear_1_191)" stroke-width="6" stroke-miterlimit="10"/>
<line x1="58.5" y1="2.18557e-08" x2="58.5" y2="118" stroke="white" stroke-opacity="0.3" stroke-dasharray="2 2"/>
<line x1="117" y1="59.5" x2="-1" y2="59.5" stroke="white" stroke-opacity="0.3" stroke-dasharray="2 2"/>
<path d="M73.337 45.3695C68.6475 44.9858 64.2565 42.9821 60.9312 39.6568L60.0786 38.7616C59.7375 38.4205 59.2686 38.25 58.7996 38.25C58.3307 38.25 57.8617 38.4205 57.5207 38.7616L56.668 39.6568C53.3428 42.9821 48.9517 44.9858 44.2622 45.3695C43.3243 45.4547 42.5996 46.2221 42.5996 47.16V52.3184C42.5996 63.1468 48.4828 73.2079 57.9043 78.5368C58.1601 78.7074 58.5012 78.75 58.7996 78.75C59.098 78.75 59.3965 78.6647 59.6949 78.5368C69.1165 73.2079 74.9996 63.1468 74.9996 52.3184V47.16C74.9996 46.2221 74.2749 45.4547 73.337 45.3695ZM58.7996 74.8705V58.5H46.948C46.4791 56.4963 46.1807 54.4074 46.1807 52.3184V48.7374C50.9128 48.0126 55.3038 45.8811 58.7996 42.5558V58.5H70.6512C69.0312 65.2358 64.8107 71.1616 58.7996 74.8705Z" fill="white"/>
</g>
<defs>
<linearGradient id="paint0_linear_1_191" x1="58.5018" y1="14.9521" x2="58.5018" y2="102.682" gradientUnits="userSpaceOnUse">
<stop stop-color="#FFB01B"/>
<stop offset="1" stop-color="#FEB317"/>
</linearGradient>
<clipPath id="clip0_1_191">
<rect width="117" height="117" fill="white"/>
</clipPath>
</defs>
</svg>
