<svg width="117" height="117" viewBox="0 0 117 117" fill="none" xmlns="http://www.w3.org/2000/svg">
<g clip-path="url(#clip0_1_201)">
<path opacity="0.06" d="M58.5016 117.003C90.8111 117.003 117.003 90.8111 117.003 58.5016C117.003 26.192 90.8111 0 58.5016 0C26.192 0 0 26.192 0 58.5016C0 90.8111 26.192 117.003 58.5016 117.003Z" fill="#FFB316"/>
<path d="M58.5018 102.682C82.7279 102.682 102.367 83.0433 102.367 58.8173C102.367 34.5912 82.7279 14.9521 58.5018 14.9521C34.2758 14.9521 14.6367 34.5912 14.6367 58.8173C14.6367 83.0433 34.2758 102.682 58.5018 102.682Z" stroke="url(#paint0_linear_1_201)" stroke-width="6" stroke-miterlimit="10"/>
<line x1="58.5" y1="2.18557e-08" x2="58.5" y2="118" stroke="white" stroke-opacity="0.3" stroke-dasharray="2 2"/>
<line x1="117" y1="59.5" x2="-1" y2="59.5" stroke="white" stroke-opacity="0.3" stroke-dasharray="2 2"/>
<path d="M76.3433 58.5855H56.3884C56.2052 58.5855 56.0294 58.5127 55.8998 58.3831C55.7703 58.2535 55.6975 58.0778 55.6975 57.8946C55.7098 57.7154 55.7866 57.5467 55.9136 57.4197C56.0406 57.2927 56.2092 57.216 56.3884 57.2037H76.0602L73.3062 43.738C73.0141 42.7533 72.4729 41.8606 71.7349 41.1462C70.997 40.4318 70.0872 39.9198 69.0935 39.6597C68.1063 39.3848 67.0643 39.373 66.071 39.6255C65.0778 39.878 64.168 40.3861 63.4319 41.0991L59.9101 44.4841C59.6443 44.7494 59.2841 44.8984 58.9086 44.8984C58.533 44.8984 58.1728 44.7494 57.907 44.4841L54.3852 41.0991C53.6389 40.388 52.7214 39.8818 51.7218 39.6299C50.7222 39.378 49.6744 39.3889 48.6802 39.6614C47.686 39.934 46.7792 40.459 46.0478 41.1855C45.3165 41.912 44.7854 42.8153 44.5061 43.8076L40.9844 61.0804H76.8927L76.3433 58.5855ZM50.7243 58.5855C50.5411 58.5855 50.3654 58.5127 50.2358 58.3831C50.1062 58.2535 50.0334 58.0778 50.0334 57.8946C50.0334 57.7113 50.1062 57.5356 50.2358 57.406C50.3654 57.2764 50.5411 57.2037 50.7243 57.2037C50.9031 57.2159 51.0715 57.2923 51.1984 57.4188C51.3254 57.5453 51.4024 57.7134 51.4153 57.8922C51.4212 57.9846 51.4074 58.0771 51.3749 58.1638C51.3423 58.2505 51.2916 58.3292 51.2263 58.3948C51.1609 58.4603 51.0824 58.5113 50.9958 58.5441C50.9093 58.577 50.8167 58.5911 50.7243 58.5855Z" fill="white"/>
<path d="M80.3497 62.4503H37.549C37.455 62.4448 37.3609 62.4585 37.2724 62.4906C37.1839 62.5228 37.1029 62.5727 37.0344 62.6373C36.9658 62.7019 36.9112 62.7798 36.8739 62.8662C36.8366 62.9527 36.8174 63.0459 36.8174 63.14C36.8174 63.2342 36.8366 63.3273 36.8739 63.4138C36.9112 63.5002 36.9658 63.5782 37.0344 63.6427C37.1029 63.7073 37.1839 63.7572 37.2724 63.7894C37.3609 63.8215 37.455 63.8353 37.549 63.8297H80.3497C80.5256 63.8193 80.6908 63.7422 80.8117 63.614C80.9326 63.4857 80.9999 63.3162 80.9999 63.14C80.9999 62.9638 80.9326 62.7943 80.8117 62.6661C80.6908 62.5379 80.5256 62.4607 80.3497 62.4503Z" fill="white"/>
<path d="M69.2302 66.1807C67.6135 66.1797 66.0541 66.7792 64.8546 67.8631C63.655 68.9469 62.9009 70.4378 62.7385 72.0463H55.1457C54.9687 70.3753 54.1575 68.836 52.8792 67.7455C51.6008 66.655 49.9529 66.0964 48.2749 66.185C46.597 66.2736 45.017 67.0026 43.8606 68.2216C42.7042 69.4407 42.0596 71.0569 42.0596 72.7372C42.0596 74.4175 42.7042 76.0337 43.8606 77.2527C45.017 78.4718 46.597 79.2007 48.2749 79.2893C49.9529 79.3779 51.6008 78.8194 52.8792 77.7289C54.1575 76.6384 54.9687 75.099 55.1457 73.4281H62.7385C62.9084 75.0998 63.715 76.642 64.9911 77.7351C66.2672 78.8283 67.915 79.3885 69.5929 79.2996C71.2709 79.2108 72.8503 78.4797 74.0039 77.258C75.1575 76.0362 75.7967 74.4175 75.7891 72.7372C75.7772 71.0016 75.0822 69.3405 73.8547 68.1134C72.6272 66.8863 70.9658 66.192 69.2302 66.1807ZM48.5988 76.7027C47.8198 76.7018 47.0586 76.4699 46.4113 76.0364C45.7641 75.6029 45.26 74.9872 44.9626 74.2672C44.6653 73.5471 44.5881 72.7551 44.7409 71.9913C44.8936 71.2274 45.2694 70.526 45.8207 69.9756C46.372 69.4253 47.0742 69.0508 47.8383 68.8995C48.6025 68.7481 49.3943 68.8268 50.1138 69.1254C50.8333 69.4241 51.448 69.9293 51.8804 70.5773C52.3127 71.2253 52.5432 71.987 52.5427 72.766C52.5427 73.2832 52.4408 73.7953 52.2428 74.2731C52.0448 74.7509 51.7547 75.1849 51.3888 75.5505C51.023 75.9161 50.5887 76.2061 50.1108 76.4038C49.6329 76.6015 49.1208 76.7031 48.6036 76.7027H48.5988ZM69.271 76.7027C68.4919 76.7023 67.7305 76.4708 67.0829 76.0375C66.4354 75.6043 65.9309 74.9888 65.6332 74.2688C65.3355 73.5488 65.2579 72.7568 65.4104 71.9927C65.5629 71.2287 65.9385 70.527 66.4897 69.9765C67.0409 69.4259 67.7431 69.0512 68.5073 68.8996C69.2715 68.7481 70.0635 68.8266 70.7831 69.1252C71.5027 69.4238 72.1176 69.929 72.55 70.5771C72.9825 71.2251 73.2131 71.9869 73.2126 72.766C73.2119 73.8099 72.797 74.8108 72.0588 75.549C71.3207 76.2871 70.3197 76.7021 69.2758 76.7027H69.271Z" fill="white"/>
</g>
<defs>
<linearGradient id="paint0_linear_1_201" x1="58.5018" y1="14.9521" x2="58.5018" y2="102.682" gradientUnits="userSpaceOnUse">
<stop stop-color="#FFB01B"/>
<stop offset="1" stop-color="#FEB317"/>
</linearGradient>
<clipPath id="clip0_1_201">
<rect width="117" height="117" fill="white"/>
</clipPath>
</defs>
</svg>
